<svg xmlns="http://www.w3.org/2000/svg" width="1200" height="630" viewBox="0 0 1200 630">
  <defs>
    <linearGradient id="bg" x1="0" y1="0" x2="1" y2="1">
      <stop offset="0%" stop-color="#0a1620"/>
      <stop offset="100%" stop-color="#1C1E26"/>
    </linearGradient>
    <radialGradient id="glow" cx="0.85" cy="0.15" r="0.6">
      <stop offset="0%" stop-color="#5fb8c4" stop-opacity="0.25"/>
      <stop offset="100%" stop-color="#5fb8c4" stop-opacity="0"/>
    </radialGradient>
    <radialGradient id="glow2" cx="0.15" cy="0.9" r="0.5">
      <stop offset="0%" stop-color="#f4c430" stop-opacity="0.18"/>
      <stop offset="100%" stop-color="#f4c430" stop-opacity="0"/>
    </radialGradient>
  </defs>

  <rect width="1200" height="630" fill="url(#bg)"/>
  <rect width="1200" height="630" fill="url(#glow)"/>
  <rect width="1200" height="630" fill="url(#glow2)"/>

  <!-- Border accent -->
  <rect x="40" y="40" width="1120" height="550" rx="24" fill="none" stroke="#f4c430" stroke-opacity="0.35" stroke-width="2"/>

  <!-- Icon badge -->
  <g transform="translate(96, 110)">
    <rect width="96" height="96" rx="20" fill="#163046" stroke="#f4c430" stroke-opacity="0.5" stroke-width="2"/>
    <text x="48" y="64" text-anchor="middle" font-family="'JetBrains Mono', monospace" font-size="48" font-weight="700" fill="#f4c430">Y</text>
  </g>

  <!-- Title -->
  <text x="220" y="170" font-family="'Geist', 'Inter', system-ui, sans-serif" font-size="88" font-weight="700" fill="#D5CED9" letter-spacing="-2">
    Al Bhed Translator
  </text>

  <!-- Cipher subtitle -->
  <text x="220" y="232" font-family="'JetBrains Mono', monospace" font-size="44" font-weight="600" fill="#5fb8c4">
    Ym Pat Dnyhcmydun
  </text>

  <!-- Tagline -->
  <text x="96" y="360" font-family="'Geist', 'Inter', system-ui, sans-serif" font-size="34" font-weight="400" fill="#9aa5b8">
    Instant English ↔ Al Bhed translation for Final Fantasy X
  </text>

  <!-- Cipher demo row -->
  <g transform="translate(96, 430)" font-family="'JetBrains Mono', monospace" font-size="32" font-weight="600">
    <g>
      <rect x="0" y="0" width="64" height="64" rx="10" fill="#23262E" stroke="#3a4252" stroke-width="1.5"/>
      <text x="32" y="42" text-anchor="middle" fill="#D5CED9">H</text>
    </g>
    <text x="80" y="42" fill="#677691">→</text>
    <g transform="translate(112, 0)">
      <rect x="0" y="0" width="64" height="64" rx="10" fill="#23262E" stroke="#5fb8c4" stroke-opacity="0.5" stroke-width="1.5"/>
      <text x="32" y="42" text-anchor="middle" fill="#5fb8c4">R</text>
    </g>

    <g transform="translate(220, 0)">
      <rect x="0" y="0" width="64" height="64" rx="10" fill="#23262E" stroke="#3a4252" stroke-width="1.5"/>
      <text x="32" y="42" text-anchor="middle" fill="#D5CED9">E</text>
    </g>
    <text x="300" y="42" fill="#677691">→</text>
    <g transform="translate(332, 0)">
      <rect x="0" y="0" width="64" height="64" rx="10" fill="#23262E" stroke="#5fb8c4" stroke-opacity="0.5" stroke-width="1.5"/>
      <text x="32" y="42" text-anchor="middle" fill="#5fb8c4">A</text>
    </g>

    <g transform="translate(440, 0)">
      <rect x="0" y="0" width="64" height="64" rx="10" fill="#23262E" stroke="#3a4252" stroke-width="1.5"/>
      <text x="32" y="42" text-anchor="middle" fill="#D5CED9">L</text>
    </g>
    <text x="520" y="42" fill="#677691">→</text>
    <g transform="translate(552, 0)">
      <rect x="0" y="0" width="64" height="64" rx="10" fill="#23262E" stroke="#5fb8c4" stroke-opacity="0.5" stroke-width="1.5"/>
      <text x="32" y="42" text-anchor="middle" fill="#5fb8c4">M</text>
    </g>

    <g transform="translate(660, 0)">
      <rect x="0" y="0" width="64" height="64" rx="10" fill="#23262E" stroke="#3a4252" stroke-width="1.5"/>
      <text x="32" y="42" text-anchor="middle" fill="#D5CED9">L</text>
    </g>
    <text x="740" y="42" fill="#677691">→</text>
    <g transform="translate(772, 0)">
      <rect x="0" y="0" width="64" height="64" rx="10" fill="#23262E" stroke="#5fb8c4" stroke-opacity="0.5" stroke-width="1.5"/>
      <text x="32" y="42" text-anchor="middle" fill="#5fb8c4">M</text>
    </g>

    <g transform="translate(880, 0)">
      <rect x="0" y="0" width="64" height="64" rx="10" fill="#23262E" stroke="#3a4252" stroke-width="1.5"/>
      <text x="32" y="42" text-anchor="middle" fill="#D5CED9">O</text>
    </g>
    <text x="960" y="42" fill="#677691">→</text>
    <g transform="translate(992, 0)">
      <rect x="0" y="0" width="64" height="64" rx="10" fill="#23262E" stroke="#5fb8c4" stroke-opacity="0.5" stroke-width="1.5"/>
      <text x="32" y="42" text-anchor="middle" fill="#5fb8c4">U</text>
    </g>
  </g>

  <!-- Footer URL -->
  <text x="96" y="560" font-family="'JetBrains Mono', monospace" font-size="22" font-weight="500" fill="#677691">
    al-bhed-translator.vercel.app
  </text>
</svg>
